<svg xmlns="http://www.w3.org/2000/svg" version="1.0" viewBox="0 0 391.5 391.5"><path d="M4.5 196.31v191.81h381.38V4.5H4.5v191.81zm379.13 0v188.44H6.75V7.87h376.88v188.44zM326.7 28.57c-9.22 4.05-13.5 19.35-7.65 27.34 11.59 15.64 35.77 8.55 35.55-10.57-.11-13.84-14.63-22.5-27.9-16.77zm19.91 5.85c6.53 6.3 6.86 14.4.79 21.38-9.67 10.91-27.9 4.27-27.9-10.24 0-13.5 17.21-20.59 27.11-11.14zm-179.77 31.4C78.3 81.9 29.7 180.67 70.65 261.55c49.73 98.33 192.6 98.33 242.33 0C363.83 161.32 277.54 45.66 166.84 65.8zm52.2 3.93c102.37 21.26 140.4 149.29 66.26 223.43-83.25 83.25-225.79 24.3-225.79-93.5 0-83.92 77.4-146.92 159.53-129.93zm-50.29 23.06c-126.34 28.24-106.76 213.75 22.5 213.75 125.44 0 149.85-176.85 29.14-212.17-10.91-3.15-40.39-4.05-51.64-1.58zm43.65 3.49c80.78 16.65 111.38 116.55 53.89 175.84-65.36 67.27-179.66 20.81-179.66-73.02 0-66.26 61.08-116.2 125.77-102.82zm-24.53 93.26c0 16.76.23 19.69 1.7 19.69 1.46 0 1.68-2.93 1.68-19.69s-.23-19.69-1.69-19.69-1.69 2.93-1.69 19.7zm-20.58.34c-16.2 16.88-2.81 44.1 21.71 44.1 24.3 0 37.8-26.55 22.16-43.65-5.4-5.85-6.97-1.35-2.36 6.98 8.44 15.07-1.58 30.48-19.8 30.48-20.48 0-30.15-20.25-16.76-34.99 4.72-5.17-.12-7.98-4.95-2.92z"/></svg>